<svg width="16" height="23" viewBox="0 0 16 23" fill="none" xmlns="http://www.w3.org/2000/svg">
<path d="M12.8664 14.3654L12.8663 14.3655L9.00095 18.2321V1.75C9.00095 1.41848 8.86925 1.10054 8.63483 0.866117C8.40041 0.631696 8.08247 0.5 7.75095 0.5C7.41943 0.5 7.10148 0.631696 6.86706 0.866117C6.63265 1.10054 6.50095 1.41848 6.50095 1.75V18.2321L2.63556 14.3655L2.6355 14.3654C2.4009 14.1308 2.08272 13.9991 1.75095 13.9991C1.41918 13.9991 1.10099 14.1308 0.866394 14.3654C0.631795 14.6 0.5 14.9182 0.5 15.25C0.5 15.5818 0.631795 15.9 0.866394 16.1346L1.21995 15.781L0.866394 16.1346L6.86595 22.1341C6.98206 22.2505 7.12 22.3429 7.27186 22.4059C7.42373 22.4689 7.58653 22.5013 7.75095 22.5013C7.91537 22.5013 8.07817 22.4689 8.23003 22.4059C8.38189 22.3429 8.51983 22.2505 8.63595 22.1341L14.6355 16.1346C14.8701 15.9 15.0019 15.5818 15.0019 15.25C15.0019 14.9182 14.8701 14.6 14.6355 14.3654C14.4009 14.1308 14.0827 13.9991 13.7509 13.9991C13.4192 13.9991 13.101 14.1308 12.8664 14.3654Z"  />
</svg>
