<svg xmlns="http://www.w3.org/2000/svg" width="159" height="75" fill="none"><rect width="157.5" height="73.5" x=".75" y=".75" fill="#FDFDFE" rx="9.25"/><rect width="157.5" height="73.5" x=".75" y=".75" stroke="#090909" stroke-width="1.5" rx="9.25"/><path fill="#090909" d="m26.355 28.25-4.62-10.5h1.62l4.245 9.69h-.93l4.275-9.69h1.5l-4.605 10.5h-1.485Zm7.429 0v-10.5h1.5v10.5h-1.5Zm4.644 0v-10.5h4.095c.92 0 1.704.145 2.354.435.65.29 1.15.71 1.5 1.26.35.55.526 1.205.526 1.965s-.175 1.415-.526 1.965c-.35.54-.85.96-1.5 1.26-.65.29-1.434.435-2.355.435h-3.27l.675-.705v3.885h-1.5Zm1.5-3.735-.675-.75h3.224c.96 0 1.686-.205 2.176-.615.5-.41.75-.99.75-1.74s-.25-1.33-.75-1.74c-.49-.41-1.215-.615-2.175-.615h-3.226l.675-.75v6.21ZM51.69 28.25l4.755-10.5h1.485l4.77 10.5h-1.575l-4.245-9.66h.6l-4.245 9.66h-1.545Zm2.025-2.625.405-1.2h5.91l.435 1.2h-6.75Zm14.556 2.715c-.66 0-1.265-.15-1.815-.45-.54-.31-.975-.765-1.305-1.365-.32-.6-.48-1.35-.48-2.25 0-.9.155-1.65.465-2.25.32-.6.75-1.05 1.29-1.35a3.79 3.79 0 0 1 1.845-.45c.78 0 1.47.17 2.07.51.6.34 1.075.815 1.425 1.425.35.6.525 1.305.525 2.115 0 .81-.175 1.52-.525 2.13a3.75 3.75 0 0 1-1.425 1.425c-.6.34-1.29.51-2.07.51Zm-4.215 2.82V20.3h1.38v2.145l-.09 1.845.15 1.845v5.025h-1.44Zm4.095-4.08c.51 0 .965-.115 1.365-.345.41-.23.73-.555.96-.975.24-.43.36-.925.36-1.485 0-.57-.12-1.06-.36-1.47-.23-.42-.55-.745-.96-.975-.4-.23-.855-.345-1.365-.345-.5 0-.955.115-1.365.345-.4.23-.72.555-.96.975-.23.41-.345.9-.345 1.47 0 .56.115 1.055.345 1.485.24.42.56.745.96.975.41.23.865.345 1.365.345Zm10.992 1.17v-1.68l-.075-.315V23.39c0-.61-.18-1.08-.54-1.41-.35-.34-.88-.51-1.59-.51-.47 0-.93.08-1.38.24-.45.15-.83.355-1.14.615l-.6-1.08c.41-.33.9-.58 1.47-.75.58-.18 1.185-.27 1.815-.27 1.09 0 1.93.265 2.52.795.59.53.885 1.34.885 2.43v4.8h-1.365Zm-2.61.09c-.59 0-1.11-.1-1.56-.3-.44-.2-.78-.475-1.02-.825-.24-.36-.36-.765-.36-1.215 0-.43.1-.82.3-1.17.21-.35.545-.63 1.005-.84.47-.21 1.1-.315 1.89-.315h2.52v1.035h-2.46c-.72 0-1.205.12-1.455.36s-.375.53-.375.87c0 .39.155.705.465.945.31.23.74.345 1.29.345.54 0 1.01-.12 1.41-.36.41-.24.705-.59.885-1.05l.285.99c-.19.47-.525.845-1.005 1.125-.48.27-1.085.405-1.815.405Zm6.64-.09V20.3h1.38v2.16l-.135-.54c.22-.55.59-.97 1.11-1.26.52-.29 1.16-.435 1.92-.435v1.395c-.06-.01-.12-.015-.18-.015h-.15c-.77 0-1.38.23-1.83.69-.45.46-.675 1.125-.675 1.995v3.96h-1.44Zm9.102.09c-.8 0-1.42-.215-1.86-.645-.44-.43-.66-1.045-.66-1.845v-7.29h1.44v7.23c0 .43.105.76.315.99.22.23.53.345.93.345.45 0 .825-.125 1.125-.375l.45 1.035c-.22.19-.485.33-.795.42-.3.09-.615.135-.945.135Zm-3.87-6.855V20.3h5.07v1.185h-5.07Zm17.296-1.26c.64 0 1.205.125 1.695.375s.87.63 1.14 1.14c.28.51.42 1.155.42 1.935v4.575h-1.44v-4.41c0-.77-.18-1.35-.54-1.74-.36-.39-.865-.585-1.515-.585-.48 0-.9.1-1.26.3-.36.2-.64.495-.84.885-.19.39-.285.875-.285 1.455v4.095h-1.44v-4.41c0-.77-.18-1.35-.54-1.74-.35-.39-.855-.585-1.515-.585-.47 0-.885.1-1.245.3-.36.2-.64.495-.84.885-.2.39-.3.875-.3 1.455v4.095h-1.44V20.3h1.38v2.115l-.225-.54c.25-.52.635-.925 1.155-1.215.52-.29 1.125-.435 1.815-.435.76 0 1.415.19 1.965.57.55.37.91.935 1.08 1.695l-.585-.24c.24-.61.66-1.1 1.26-1.47.6-.37 1.3-.555 2.1-.555Zm9.444 8.115c-.85 0-1.6-.175-2.25-.525a3.85 3.85 0 0 1-1.5-1.44c-.35-.61-.525-1.31-.525-2.1s.17-1.49.51-2.1a3.75 3.75 0 0 1 1.425-1.425c.61-.35 1.295-.525 2.055-.525.77 0 1.45.17 2.04.51.59.34 1.05.82 1.38 1.44.34.61.51 1.325.51 2.145 0 .06-.005.13-.015.21 0 .08-.005.155-.015.225h-6.765V23.72h6.015l-.585.36c.01-.51-.095-.965-.315-1.365a2.34 2.34 0 0 0-.915-.93c-.38-.23-.825-.345-1.335-.345-.5 0-.945.115-1.335.345-.39.22-.695.535-.915.945-.22.4-.33.86-.33 1.38v.24c0 .53.12 1.005.36 1.425.25.41.595.73 1.035.96.44.23.945.345 1.515.345.47 0 .895-.08 1.275-.24.39-.16.73-.4 1.02-.72l.795.93c-.36.42-.81.74-1.35.96-.53.22-1.125.33-1.785.33Zm9.89-8.115c.65 0 1.22.125 1.71.375.5.25.89.63 1.17 1.14.28.51.42 1.155.42 1.935v4.575h-1.44v-4.41c0-.77-.19-1.35-.57-1.74-.37-.39-.895-.585-1.575-.585-.51 0-.955.1-1.335.3-.38.2-.675.495-.885.885-.2.39-.3.875-.3 1.455v4.095h-1.44V20.3h1.38v2.145l-.225-.57c.26-.52.66-.925 1.2-1.215.54-.29 1.17-.435 1.89-.435Zm8.245 8.115c-.66 0-1.29-.09-1.89-.27-.59-.18-1.055-.4-1.395-.66l.6-1.14c.34.23.76.425 1.26.585.5.16 1.01.24 1.53.24.67 0 1.15-.095 1.44-.285.3-.19.45-.455.45-.795a.7.7 0 0 0-.27-.585c-.18-.14-.42-.245-.72-.315-.29-.07-.615-.13-.975-.18-.36-.06-.72-.13-1.08-.21-.36-.09-.69-.21-.99-.36-.3-.16-.54-.375-.72-.645-.18-.28-.27-.65-.27-1.11 0-.48.135-.9.405-1.26s.65-.635 1.14-.825c.5-.2 1.09-.3 1.77-.3.52 0 1.045.065 1.575.195.54.12.98.295 1.32.525l-.615 1.14a3.398 3.398 0 0 0-1.125-.495c-.39-.09-.78-.135-1.17-.135-.63 0-1.1.105-1.41.315-.31.2-.465.46-.465.78 0 .27.09.48.27.63.19.14.43.25.72.33.3.08.63.15.99.21.36.05.72.12 1.08.21.36.08.685.195.975.345.3.15.54.36.72.63.19.27.285.63.285 1.08 0 .48-.14.895-.42 1.245-.28.35-.675.625-1.185.825-.51.19-1.12.285-1.83.285ZM46.866 46.392h7.56v1.785h-7.56v-1.785Zm.189 6.531h8.568v1.827H44.955v-14.7h10.374v1.827h-8.274v11.046Zm11.968 1.827v-14.7h2.1v12.873h7.96v1.827h-10.06Zm14.38-8.358h7.56v1.785h-7.56v-1.785Zm.19 6.531h8.567v1.827H71.492v-14.7h10.374v1.827h-8.274v11.046ZM85.56 54.75v-14.7h1.721l9.724 12.075h-.903V40.05h2.1v14.7H96.48l-9.724-12.075h.903V54.75h-2.1Zm14.815 0 6.657-14.7h2.079l6.678 14.7h-2.205l-5.943-13.524h.84l-5.943 13.524h-2.163Zm2.835-3.675.567-1.68h8.274l.609 1.68h-9.45Z"/></svg>