<svg width="288" height="88" viewBox="0 0 288 88" fill="none" xmlns="http://www.w3.org/2000/svg">
<g style="mix-blend-mode:overlay">
<path d="M253 88L268.708 43H272.292L288 88H284.171L269.739 45.7643H271.212L256.78 88H253ZM259.185 75.9786L260.265 72.1214H280.244L281.324 75.9786H259.185Z" fill="#090909"/>
<path d="M218 88V43H221.024L244.968 82.0857H243.381V43H247V88H243.976L220.082 48.9143H221.668V88H218Z" fill="#090909"/>
<path d="M195.712 88V71.2857L196.545 74.2429L182 43H185.869L198.651 70.45H196.594L209.376 43H213L198.455 74.2429L199.288 71.2857V88H195.712Z" fill="#090909"/>
<path d="M172.381 43H176V88H172.381V43ZM150.668 88H147V43H150.668L150.668 88ZM172.728 67.2357H150.272V63.0571H172.728V67.2357Z" fill="#090909"/>
<path d="M126.975 88C124.38 88 121.885 87.4733 119.489 86.4199C117.127 85.3244 115.298 83.934 114 82.2486L115.447 78.6461C116.678 80.1629 118.325 81.448 120.388 82.5014C122.484 83.5126 124.679 84.0183 126.975 84.0183C129.171 84.0183 130.951 83.6812 132.315 83.007C133.712 82.2907 134.727 81.3427 135.359 80.1629C136.024 78.9831 136.357 77.677 136.357 76.2444C136.357 74.5169 135.958 73.1264 135.159 72.073C134.394 71.0197 133.379 70.198 132.115 69.6081C130.851 68.9761 129.454 68.4284 127.923 67.9649C126.393 67.5014 124.862 67.0168 123.332 66.5112C121.802 65.9635 120.388 65.2472 119.09 64.3624C117.826 63.4775 116.795 62.3188 115.996 60.8862C115.231 59.4115 114.848 57.4944 114.848 55.1348C114.848 52.9438 115.298 50.9424 116.196 49.1306C117.127 47.2767 118.541 45.802 120.438 44.7065C122.334 43.5688 124.763 43 127.724 43C129.686 43 131.633 43.3581 133.562 44.0744C135.492 44.7486 137.155 45.6966 138.553 46.9185L137.305 50.6475C135.808 49.3834 134.211 48.4565 132.514 47.8666C130.851 47.2767 129.237 46.9817 127.674 46.9817C125.578 46.9817 123.848 47.3399 122.484 48.0562C121.12 48.7725 120.105 49.7416 119.44 50.9635C118.807 52.1433 118.491 53.4916 118.491 55.0084C118.491 56.736 118.874 58.1264 119.639 59.1798C120.438 60.2331 121.469 61.0548 122.733 61.6447C124.031 62.2345 125.445 62.7612 126.975 63.2247C128.505 63.6882 130.019 64.1938 131.516 64.7416C133.047 65.2893 134.444 66.0056 135.708 66.8904C137.006 67.7331 138.037 68.8708 138.802 70.3034C139.601 71.736 140 73.611 140 75.9284C140 78.0772 139.534 80.0786 138.603 81.9326C137.671 83.7444 136.241 85.2191 134.311 86.3567C132.415 87.4522 129.969 88 126.975 88Z" fill="#090909"/>
<path d="M77 88V43H80.0239L103.968 82.0857H102.381V43H106V88H102.976L79.0821 48.9143H80.6684V88H77Z" fill="#090909"/>
<path d="M47.2 63.1214H65.1394V67.1714H47.2V63.1214ZM47.5879 83.8857H68V88H44V43H67.2727V47.1143H47.5879V83.8857Z" fill="#090909"/>
<path d="M29 88L29 43H33V88H29Z" fill="#090909"/>
<path d="M0 88L0 43H3.65236L3.65236 83.8857H23V88H0Z" fill="#090909"/>
</g>
<g style="mix-blend-mode:overlay">
<path d="M89 27L100.22 0L102.78 0L114 27H111.265L100.957 1.65857H102.008L91.6999 27H89ZM93.418 19.7871L94.1893 17.4729H108.46L109.231 19.7871H93.418Z" fill="#090909"/>
<path d="M66 27V0L68.0855 0L84.5983 23.4514H83.5043V0L86 0V27H83.9145L67.4359 3.54857H68.5299V27H66Z" fill="#090909"/>
<path d="M45.2667 12.0729H57.9737V14.5029H45.2667V12.0729ZM45.5414 24.5314H60V27H43V0L59.4848 0V2.46857L45.5414 2.46857V24.5314Z" fill="#090909"/>
<path d="M23 27V0L25.5408 0V24.5314H39V27H23Z" fill="#090909"/>
<path d="M2.26667 12.0729H14.9737V14.5029H2.26667V12.0729ZM2.54141 24.5314H17V27H0L0 0L16.4849 0V2.46857L2.54141 2.46857L2.54141 24.5314Z" fill="#090909"/>
</g>
</svg>
