<svg width="933" height="190" viewBox="0 0 933 190" fill="none" xmlns="http://www.w3.org/2000/svg">
<g filter="url(#filter0_d_1707_129)">
<path d="M811 175L861.266 90H872.733L923 175H910.748L864.565 95.2214H869.278L823.095 175H811ZM830.792 152.293L834.248 145.007H898.181L901.637 152.293H830.792Z" fill="#A4C5E7"/>
<path d="M702 175V90H711.489L786.622 163.829H781.644V90H793V175H783.511L708.533 101.171H713.511V175H702Z" fill="#A4C5E7"/>
<path d="M630.791 175V143.429L633.45 149.014L587 90H599.355L640.175 141.85H633.607L674.427 90H686L639.55 149.014L642.209 143.429V175H630.791Z" fill="#A4C5E7"/>
<path d="M557.52 90H569V175H557.52V90ZM488.638 175H477V90H488.638V175ZM558.62 135.779H487.379V127.886H558.62V135.779Z" fill="#A4C5E7"/>
<path d="M411.422 176C403.338 176 395.564 174.982 388.102 172.945C380.743 170.827 375.042 168.139 371 164.881L375.509 157.916C379.344 160.848 384.474 163.333 390.9 165.369C397.43 167.324 404.271 168.302 411.422 168.302C418.263 168.302 423.808 167.65 428.058 166.347C432.411 164.962 435.572 163.129 437.541 160.848C439.614 158.567 440.651 156.042 440.651 153.272C440.651 149.933 439.407 147.244 436.919 145.208C434.536 143.171 431.374 141.583 427.436 140.442C423.497 139.22 419.144 138.162 414.376 137.265C409.608 136.369 404.841 135.433 400.073 134.455C395.305 133.396 390.9 132.011 386.858 130.301C382.919 128.59 379.706 126.35 377.219 123.58C374.835 120.729 373.643 117.022 373.643 112.461C373.643 108.225 375.042 104.355 377.841 100.853C380.743 97.2683 385.148 94.4171 391.056 92.2992C396.964 90.0997 404.53 89 413.754 89C419.869 89 425.933 89.6924 431.944 91.0772C437.956 92.3806 443.138 94.2135 447.491 96.5758L443.605 103.785C438.94 101.341 433.965 99.5492 428.679 98.4087C423.497 97.2683 418.47 96.698 413.599 96.698C407.069 96.698 401.679 97.3904 397.43 98.7753C393.18 100.16 390.019 102.034 387.946 104.396C385.977 106.677 384.992 109.284 384.992 112.216C384.992 115.556 386.184 118.244 388.568 120.281C391.056 122.317 394.269 123.906 398.207 125.046C402.25 126.187 406.654 127.205 411.422 128.101C416.19 128.997 420.906 129.975 425.57 131.034C430.338 132.093 434.691 133.478 438.63 135.188C442.672 136.817 445.885 139.017 448.269 141.787C450.756 144.556 452 148.181 452 152.662C452 156.816 450.549 160.685 447.647 164.27C444.745 167.772 440.288 170.624 434.276 172.823C428.369 174.941 420.75 176 411.422 176Z" fill="#A4C5E7"/>
<path d="M254 175V90H263.489L338.622 163.829H333.644V90H345V175H335.511L260.533 101.171H265.511V175H254Z" fill="#A4C5E7"/>
<path d="M159.4 128.007H217.703V135.657H159.4V128.007ZM160.661 167.229H227V175H149V90H224.636V97.7714H160.661V167.229Z" fill="#A4C5E7"/>
<path d="M102 175V90H114V175H102Z" fill="#A4C5E7"/>
<path d="M10 175L10 90H21.5923L21.5923 167.229H83V175H10Z" fill="#A4C5E7"/>
</g>
<g filter="url(#filter1_d_1707_129)">
<path d="M233 58L260.377 6H266.623L294 58H287.327L262.174 9.19429H264.741L239.588 58H233ZM243.78 44.1086L245.662 39.6514H280.482L282.365 44.1086H243.78Z" fill="#A4C5E7"/>
<path d="M174 58V6H179.109L219.566 51.1657H216.885V6L223 6V58H217.891L177.518 12.8343H180.198V58H174Z" fill="#A4C5E7"/>
<path d="M122.6 29.2514L153.994 29.2514V33.9314H122.6V29.2514ZM123.279 53.2457H159V58H117V6L157.727 6V10.7543L123.279 10.7543V53.2457Z" fill="#A4C5E7"/>
<path d="M67 58V6H73.1931V53.2457H106V58H67Z" fill="#A4C5E7"/>
<path d="M15.6 29.2514L46.9939 29.2514V33.9314H15.6V29.2514ZM16.2788 53.2457H52V58H10L10 6L50.7273 6V10.7543L16.2788 10.7543L16.2788 53.2457Z" fill="#A4C5E7"/>
</g>
<defs>
<filter id="filter0_d_1707_129" x="0" y="83" width="933" height="107" filterUnits="userSpaceOnUse" color-interpolation-filters="sRGB">
<feFlood flood-opacity="0" result="BackgroundImageFix"/>
<feColorMatrix in="SourceAlpha" type="matrix" values="0 0 0 0 0 0 0 0 0 0 0 0 0 0 0 0 0 0 127 0" result="hardAlpha"/>
<feOffset dy="4"/>
<feGaussianBlur stdDeviation="5"/>
<feComposite in2="hardAlpha" operator="out"/>
<feColorMatrix type="matrix" values="0 0 0 0 0 0 0 0 0 0 0 0 0 0 0 0 0 0 0.25 0"/>
<feBlend mode="normal" in2="BackgroundImageFix" result="effect1_dropShadow_1707_129"/>
<feBlend mode="normal" in="SourceGraphic" in2="effect1_dropShadow_1707_129" result="shape"/>
</filter>
<filter id="filter1_d_1707_129" x="0" y="0" width="304" height="72" filterUnits="userSpaceOnUse" color-interpolation-filters="sRGB">
<feFlood flood-opacity="0" result="BackgroundImageFix"/>
<feColorMatrix in="SourceAlpha" type="matrix" values="0 0 0 0 0 0 0 0 0 0 0 0 0 0 0 0 0 0 127 0" result="hardAlpha"/>
<feOffset dy="4"/>
<feGaussianBlur stdDeviation="5"/>
<feComposite in2="hardAlpha" operator="out"/>
<feColorMatrix type="matrix" values="0 0 0 0 0 0 0 0 0 0 0 0 0 0 0 0 0 0 0.25 0"/>
<feBlend mode="normal" in2="BackgroundImageFix" result="effect1_dropShadow_1707_129"/>
<feBlend mode="normal" in="SourceGraphic" in2="effect1_dropShadow_1707_129" result="shape"/>
</filter>
</defs>
</svg>
