<svg width="410" height="407" viewBox="0 0 410 407" fill="none" xmlns="http://www.w3.org/2000/svg">
<g style="mix-blend-mode:lighten">
<path d="M249.948 1.00024L250.224 117.444C250.228 119.143 248.908 120.554 247.212 120.649V120.649C246.125 120.71 244.546 120.79 243.976 120.819C243.833 120.826 243.691 120.834 243.547 120.845C242.765 120.904 240.005 121.118 238.154 121.37C236.782 121.556 234.808 121.912 234.103 122.041C233.927 122.074 233.753 122.109 233.579 122.146C233.001 122.272 231.585 122.58 230.605 122.81C227.887 123.448 226.362 123.816 223.704 124.611C220.965 125.43 219.429 125.908 216.802 126.952C214.556 127.844 213.336 128.417 211.194 129.473C209.565 130.277 208.653 130.734 207.097 131.634C205.712 132.435 204.963 132.918 203.646 133.795C201.36 135.317 200.086 136.194 198.038 137.937C196.894 138.91 195.355 140.418 194.799 140.968C194.657 141.108 194.519 141.251 194.383 141.396L192.519 143.376C192.316 143.591 192.119 143.811 191.927 144.036C191.523 144.511 190.781 145.392 190.274 146.04C189.571 146.939 189.185 147.449 188.549 148.381C187.523 149.884 187.006 150.758 186.176 152.343C185.311 153.994 184.905 154.951 184.235 156.665C183.665 158.125 183.362 158.951 182.941 160.446C182.646 161.494 182.533 162.09 182.294 163.148C182.024 164.34 181.862 165.008 181.647 166.209V166.209C181.15 168.993 183.435 171.431 186.263 171.431H207.243C209.576 171.431 211.399 169.58 211.841 167.289V167.289C211.993 166.504 212.284 165.463 212.485 164.775C212.628 164.289 212.798 163.813 212.986 163.342L213.998 160.807L214.412 159.839C214.854 158.805 215.383 157.81 215.993 156.865L216.586 155.944L219.174 152.703L221.547 150.362L223.851 148.586C224.184 148.33 224.525 148.083 224.876 147.852C225.576 147.391 226.84 146.574 227.801 146.04C229.341 145.185 230.229 144.721 231.899 144.059C232.853 143.682 234.204 143.263 235.035 143.016C235.532 142.868 236.024 142.709 236.513 142.537C237.327 142.252 238.658 141.801 239.664 141.538C241.374 141.092 244.077 140.687 244.38 140.642C244.4 140.639 244.417 140.637 244.436 140.634C244.737 140.59 247.396 140.203 249.153 140.098C251.008 139.986 253.793 140.072 254.418 140.093C254.504 140.096 254.586 140.099 254.672 140.101C255.326 140.12 258.363 140.218 260.368 140.458C263.018 140.774 264.482 141.099 267.054 141.718C268.846 142.15 269.858 142.39 271.583 142.979C274.234 143.884 275.645 144.567 278.054 145.86C279.27 146.513 280.789 147.48 281.866 148.188C282.78 148.788 283.625 149.483 284.413 150.241L285.547 151.334C285.871 151.646 286.206 151.946 286.542 152.245C287.254 152.877 288.541 154.069 289.269 155.044C290.068 156.115 290.827 157.772 291.195 158.63C291.353 158.999 291.51 159.368 291.674 159.734C292.055 160.59 292.779 162.272 293.151 163.508C293.361 164.206 293.56 165.095 293.713 165.854C293.93 166.926 294.014 168.019 294.014 169.113V171.424C294.014 171.429 294.014 171.429 294.014 171.434C294.013 171.58 293.999 177.585 292.504 181.155C291.571 183.382 290.707 184.527 289.269 186.558C287.305 189.33 286.013 190.816 283.446 193.22C281.066 195.449 279.518 196.543 276.76 198.443C271.153 202.303 266.909 203.175 261.015 206.726C256.834 209.246 254.438 210.636 250.663 213.569C247.61 215.941 245.902 217.311 243.33 220.052C240.737 222.816 239.313 224.444 237.507 227.615C235.608 230.949 235.217 233.057 234.056 236.619C233.08 239.615 232.345 241.28 231.899 244.362C231.404 247.783 231.899 249.74 231.899 253.186V253.186C231.899 257.96 235.769 261.83 240.543 261.83H247.341C254.208 261.83 259.677 256.5 261.015 249.765V249.765C261.609 246.778 262.808 242.567 263.34 240.751C263.514 240.155 263.719 239.572 263.968 239.004C264.564 237.641 265.806 234.955 267.054 233.198C268.738 230.826 269.993 229.643 272.23 227.615C276.046 224.159 278.846 222.763 283.446 220.052C288.201 217.249 291.491 216.461 296.17 213.569C300.106 211.137 302.208 209.626 305.66 206.726C309.24 203.718 311.297 201.996 314.071 198.443C317.406 194.172 318.798 191.444 320.542 186.558C322.269 181.715 322.689 178.821 322.914 173.772C323.211 167.121 322.814 163.224 320.542 156.845C317.3 147.747 313.759 142.616 305.66 135.956C298.415 129.998 292.919 127.697 283.446 124.611M249.283 402L250.003 319.714C250.01 318.908 249.307 318.279 248.506 318.374V318.374H246.349C244.912 318.194 241.95 317.834 241.605 317.834C241.354 317.834 239.725 317.454 238.3 317.109C237.34 316.875 236.4 316.568 235.503 316.155C234.582 315.73 233.385 315.141 232.546 314.593C231.046 313.611 230.33 312.923 229.095 311.711C227.884 310.522 227.173 309.847 226.292 308.47C225.362 307.018 224.92 306.128 224.566 304.508C224.189 302.779 224.069 301.749 224.351 300.006C224.512 299.008 224.714 298.464 224.998 297.485C225.367 296.208 225.625 295.434 226.292 294.244C227.257 292.523 228.191 291.492 229.743 290.102C231.322 288.687 234.149 287.103 234.788 286.752C234.876 286.703 234.963 286.656 235.05 286.607L235.956 286.103C236.558 285.768 237.176 285.461 237.817 285.208C238.272 285.029 238.807 284.829 239.232 284.7C239.631 284.579 240.125 284.462 240.559 284.368C241.253 284.218 241.959 284.133 242.668 284.091C243.385 284.047 244.329 283.996 245.055 283.979C246.15 283.954 246.765 283.94 247.859 283.979C248.872 284.016 249.446 284.024 250.447 284.159C251.738 284.334 252.44 284.54 253.682 284.88C254.797 285.185 255.44 285.336 256.486 285.78C257.465 286.196 257.966 286.507 258.859 287.041C259.736 287.565 260.212 287.881 261.015 288.481C261.814 289.078 262.233 289.442 262.956 290.102C263.481 290.58 263.75 290.867 264.25 291.363C264.675 291.782 264.951 291.994 265.329 292.443C266.13 293.396 266.343 294.056 266.839 295.144C267.123 295.768 267.269 296.123 267.486 296.765C267.834 297.8 268.032 298.393 268.133 299.466C268.198 300.167 268.133 300.564 268.133 301.267C268.133 302.181 268.242 302.698 268.133 303.608C268.012 304.61 267.827 305.163 267.486 306.129C267.207 306.918 267.047 307.367 266.623 308.11C266.2 308.85 265.863 309.222 265.329 309.91C264.77 310.631 264.455 311.037 263.819 311.711C263.339 312.221 262.525 312.972 262.525 312.972" stroke="#F2F7FD" stroke-width="15"/>
</g>
<g style="mix-blend-mode:lighten">
<path d="M127.191 271.795C126.932 271.795 126.721 271.585 126.721 271.325C126.791 266.334 127.494 262.362 128.83 259.409C130.166 256.456 132.063 254.065 134.524 252.236C136.984 250.407 139.937 248.721 143.381 247.18C145.455 246.239 147.317 245.128 148.969 243.848C150.621 242.541 151.922 241.039 152.871 239.34C153.855 237.642 154.347 235.76 154.347 233.696C154.347 231.135 153.539 228.914 151.922 227.033C150.305 225.151 148.143 223.701 145.437 222.682C142.731 221.663 139.726 221.153 136.422 221.153C133.54 221.153 130.763 221.597 128.092 222.486C125.421 223.374 123.189 224.772 121.396 226.68C119.968 228.2 119.019 230.093 118.551 232.36C118.341 233.373 117.494 234.166 116.46 234.166H107.131C105.976 234.166 105.051 233.189 105.238 232.05C105.818 228.504 107.285 225.408 109.639 222.76C112.486 219.598 116.23 217.181 120.869 215.509C125.544 213.836 130.728 213 136.422 213C142.608 213 147.985 213.915 152.554 215.744C157.159 217.573 160.709 220.082 163.204 223.27C165.735 226.458 167 230.09 167 234.166C167 237.041 166.402 239.641 165.207 241.967C164.048 244.292 162.361 246.37 160.146 248.199C157.967 250.028 155.331 251.648 152.238 253.059C149.145 254.496 146.667 256.012 144.804 257.606C142.942 259.174 141.588 261.042 140.745 263.211C139.901 265.38 139.444 268.085 139.374 271.325C139.374 271.585 139.164 271.795 138.904 271.795H127.191ZM133.469 295C130.868 295 128.637 294.308 126.774 292.923C124.911 291.538 123.98 289.878 123.98 287.945C123.98 286.011 124.911 284.351 126.774 282.967C128.637 281.582 130.868 280.889 133.469 280.889C136.07 280.889 138.302 281.582 140.165 282.967C142.028 284.351 142.959 286.011 142.959 287.945C142.959 289.225 142.52 290.401 141.641 291.472C140.798 292.544 139.655 293.406 138.214 294.059C136.808 294.686 135.227 295 133.469 295Z" fill="#EAF4FE"/>
</g>
<g style="mix-blend-mode:lighten" filter="url(#filter0_d_1650_129)">
<path d="M370.044 160.059C369.809 160.059 369.619 159.869 369.619 159.635C369.683 155.131 370.317 151.546 371.524 148.881C372.73 146.217 374.444 144.059 376.667 142.408C378.889 140.757 381.556 139.236 384.667 137.845C386.54 136.996 388.222 135.994 389.714 134.838C391.206 133.659 392.381 132.303 393.238 130.771C394.127 129.238 394.571 127.54 394.571 125.677C394.571 123.366 393.841 121.361 392.381 119.663C390.921 117.966 388.968 116.657 386.524 115.737C384.079 114.817 381.365 114.358 378.381 114.358C375.778 114.358 373.27 114.758 370.857 115.56C368.444 116.362 366.429 117.624 364.81 119.345C363.556 120.678 362.712 122.329 362.276 124.298C362.053 125.307 361.208 126.101 360.174 126.101H352.131C350.976 126.101 350.05 125.123 350.249 123.986C350.796 120.872 352.109 118.146 354.19 115.808C356.762 112.954 360.143 110.773 364.333 109.264C368.556 107.755 373.238 107 378.381 107C383.968 107 388.825 107.825 392.952 109.476C397.111 111.127 400.317 113.391 402.571 116.268C404.857 119.145 406 122.423 406 126.101C406 128.695 405.46 131.042 404.381 133.141C403.333 135.239 401.81 137.114 399.81 138.765C397.841 140.416 395.46 141.878 392.667 143.151C389.873 144.448 387.635 145.816 385.952 147.254C384.27 148.669 383.048 150.355 382.286 152.313C381.524 154.27 381.111 156.711 381.048 159.635C381.048 159.869 380.858 160.059 380.623 160.059H370.044ZM375.714 181C373.365 181 371.349 180.375 369.667 179.125C367.984 177.875 367.143 176.378 367.143 174.633C367.143 172.888 367.984 171.39 369.667 170.141C371.349 168.891 373.365 168.266 375.714 168.266C378.063 168.266 380.079 168.891 381.762 170.141C383.444 171.39 384.286 172.888 384.286 174.633C384.286 175.788 383.889 176.85 383.095 177.816C382.333 178.783 381.302 179.561 380 180.151C378.73 180.717 377.302 181 375.714 181Z" fill="#EAF4FE"/>
</g>
<g style="mix-blend-mode:lighten" filter="url(#filter1_d_1650_129)">
<path d="M362.191 375.795C361.932 375.795 361.721 375.585 361.721 375.325C361.791 370.334 362.494 366.362 363.83 363.409C365.166 360.456 367.063 358.065 369.524 356.236C371.984 354.407 374.937 352.721 378.381 351.18C380.455 350.239 382.317 349.128 383.969 347.848C385.621 346.541 386.922 345.039 387.871 343.34C388.855 341.642 389.347 339.76 389.347 337.696C389.347 335.135 388.539 332.914 386.922 331.033C385.305 329.151 383.143 327.701 380.437 326.682C377.731 325.663 374.726 325.153 371.422 325.153C368.54 325.153 365.763 325.597 363.092 326.486C360.421 327.374 358.189 328.772 356.396 330.68C354.968 332.2 354.019 334.093 353.551 336.36C353.341 337.373 352.494 338.166 351.46 338.166H342.131C340.976 338.166 340.051 337.189 340.238 336.05C340.818 332.504 342.285 329.408 344.639 326.76C347.486 323.598 351.23 321.181 355.869 319.509C360.544 317.836 365.728 317 371.422 317C377.608 317 382.985 317.915 387.554 319.744C392.159 321.573 395.709 324.082 398.204 327.27C400.735 330.458 402 334.09 402 338.166C402 341.041 401.402 343.641 400.207 345.967C399.048 348.292 397.361 350.37 395.146 352.199C392.967 354.028 390.331 355.648 387.238 357.059C384.145 358.496 381.667 360.012 379.804 361.606C377.942 363.174 376.588 365.042 375.745 367.211C374.901 369.38 374.444 372.085 374.374 375.325C374.374 375.585 374.164 375.795 373.904 375.795H362.191ZM368.469 399C365.868 399 363.637 398.308 361.774 396.923C359.911 395.538 358.98 393.878 358.98 391.945C358.98 390.011 359.911 388.351 361.774 386.967C363.637 385.582 365.868 384.889 368.469 384.889C371.07 384.889 373.302 385.582 375.165 386.967C377.028 388.351 377.959 390.011 377.959 391.945C377.959 393.225 377.52 394.401 376.641 395.472C375.798 396.544 374.655 397.406 373.214 398.059C371.808 398.686 370.227 399 368.469 399Z" fill="#EAF4FE"/>
</g>
<g style="mix-blend-mode:lighten" filter="url(#filter2_d_1650_129)">
<path d="M16.8876 131.417C16.7355 131.417 16.6122 131.294 16.6122 131.141C16.6531 128.22 17.0612 125.895 17.8367 124.166C18.6122 122.438 19.7143 121.038 21.1429 119.967C22.5714 118.897 24.2857 117.91 26.2857 117.008C27.4898 116.457 28.5714 115.807 29.5306 115.057C30.4898 114.293 31.2449 113.413 31.7959 112.419C32.3673 111.424 32.6531 110.323 32.6531 109.115C32.6531 107.616 32.1837 106.315 31.2449 105.214C30.3061 104.113 29.051 103.264 27.4796 102.667C25.9082 102.071 24.1633 101.772 22.2449 101.772C20.5714 101.772 18.9592 102.033 17.4082 102.553C15.8571 103.073 14.5612 103.891 13.5204 105.008C12.8491 105.728 12.3603 106.591 12.0541 107.598C11.7529 108.588 10.9218 109.39 9.88703 109.39H6.12951C4.97564 109.39 4.0413 108.408 4.3118 107.286C4.72609 105.568 5.52012 104.044 6.69388 102.713C8.34694 100.862 10.5204 99.4474 13.2143 98.4684C15.9286 97.4895 18.9388 97 22.2449 97C25.8367 97 28.9592 97.5354 31.6122 98.6061C34.2857 99.6769 36.3469 101.145 37.7959 103.011C39.2653 104.878 40 107.004 40 109.39C40 111.073 39.6531 112.595 38.9592 113.956C38.2857 115.317 37.3061 116.533 36.0204 117.604C34.7551 118.675 33.2245 119.623 31.4286 120.449C29.6327 121.291 28.1939 122.178 27.1122 123.111C26.0306 124.029 25.2449 125.122 24.7551 126.392C24.2653 127.662 24 129.245 23.9592 131.141C23.9592 131.294 23.8359 131.417 23.6838 131.417H16.8876ZM20.5306 145C19.0204 145 17.7245 144.595 16.6429 143.784C15.5612 142.973 15.0204 142.002 15.0204 140.87C15.0204 139.738 15.5612 138.767 16.6429 137.956C17.7245 137.145 19.0204 136.74 20.5306 136.74C22.0408 136.74 23.3367 137.145 24.4184 137.956C25.5 138.767 26.0408 139.738 26.0408 140.87C26.0408 141.62 25.7857 142.308 25.2755 142.935C24.7857 143.562 24.1224 144.067 23.2857 144.449C22.4694 144.816 21.551 145 20.5306 145Z" fill="#EAF4FE"/>
</g>
<g style="mix-blend-mode:lighten" filter="url(#filter3_d_1650_129)">
<path d="M318.452 275.115C318.319 275.115 318.211 275.007 318.211 274.874C318.247 272.317 318.61 270.283 319.299 268.771C319.989 267.258 320.968 266.033 322.238 265.097C323.508 264.16 325.032 263.296 326.81 262.507C327.88 262.025 328.841 261.456 329.694 260.8C330.546 260.131 331.218 259.361 331.707 258.491C332.215 257.621 332.469 256.658 332.469 255.6C332.469 254.289 332.052 253.151 331.218 252.187C330.383 251.224 329.268 250.481 327.871 249.959C326.474 249.437 324.923 249.176 323.218 249.176C321.73 249.176 320.297 249.403 318.918 249.859C317.54 250.314 316.388 251.03 315.463 252.007C314.915 252.585 314.504 253.27 314.229 254.06C313.89 255.036 313.066 255.841 312.032 255.841H309.132C307.977 255.841 307.039 254.855 307.344 253.741C307.728 252.343 308.412 251.096 309.395 249.999C310.864 248.38 312.796 247.141 315.19 246.285C317.603 245.428 320.279 245 323.218 245C326.41 245 329.186 245.468 331.544 246.405C333.921 247.342 335.753 248.627 337.041 250.26C338.347 251.893 339 253.753 339 255.841C339 257.314 338.692 258.645 338.075 259.837C337.476 261.028 336.605 262.092 335.463 263.029C334.338 263.966 332.977 264.795 331.381 265.518C329.785 266.254 328.506 267.031 327.544 267.847C326.583 268.65 325.884 269.607 325.449 270.718C325.014 271.829 324.778 273.214 324.741 274.874C324.741 275.007 324.634 275.115 324.501 275.115H318.452ZM321.694 287C320.351 287 319.2 286.645 318.238 285.936C317.277 285.227 316.796 284.377 316.796 283.386C316.796 282.396 317.277 281.546 318.238 280.837C319.2 280.127 320.351 279.772 321.694 279.772C323.036 279.772 324.188 280.127 325.15 280.837C326.111 281.546 326.592 282.396 326.592 283.386C326.592 284.042 326.365 284.644 325.912 285.193C325.476 285.742 324.887 286.184 324.143 286.518C323.417 286.839 322.601 287 321.694 287Z" fill="#EAF4FE"/>
</g>
<g style="mix-blend-mode:lighten" filter="url(#filter4_d_1650_129)">
<path d="M172.452 369.115C172.319 369.115 172.211 369.007 172.211 368.874C172.247 366.317 172.61 364.283 173.299 362.771C173.989 361.258 174.968 360.033 176.238 359.097C177.508 358.16 179.032 357.296 180.81 356.507C181.88 356.025 182.841 355.456 183.694 354.8C184.546 354.131 185.218 353.361 185.707 352.491C186.215 351.621 186.469 350.658 186.469 349.6C186.469 348.289 186.052 347.151 185.218 346.187C184.383 345.224 183.268 344.481 181.871 343.959C180.474 343.437 178.923 343.176 177.218 343.176C175.73 343.176 174.297 343.403 172.918 343.859C171.54 344.314 170.388 345.03 169.463 346.007C168.915 346.585 168.504 347.27 168.229 348.06C167.89 349.036 167.066 349.841 166.032 349.841H163.132C161.977 349.841 161.039 348.855 161.344 347.741C161.728 346.343 162.412 345.096 163.395 343.999C164.864 342.38 166.796 341.141 169.19 340.285C171.603 339.428 174.279 339 177.218 339C180.41 339 183.186 339.468 185.544 340.405C187.921 341.342 189.753 342.627 191.041 344.26C192.347 345.893 193 347.753 193 349.841C193 351.314 192.692 352.645 192.075 353.837C191.476 355.028 190.605 356.092 189.463 357.029C188.338 357.966 186.977 358.795 185.381 359.518C183.785 360.254 182.506 361.031 181.544 361.847C180.583 362.65 179.884 363.607 179.449 364.718C179.014 365.829 178.778 367.214 178.741 368.874C178.741 369.007 178.634 369.115 178.501 369.115H172.452ZM175.694 381C174.351 381 173.2 380.645 172.238 379.936C171.277 379.227 170.796 378.377 170.796 377.386C170.796 376.396 171.277 375.546 172.238 374.837C173.2 374.127 174.351 373.772 175.694 373.772C177.036 373.772 178.188 374.127 179.15 374.837C180.111 375.546 180.592 376.396 180.592 377.386C180.592 378.042 180.365 378.644 179.912 379.193C179.476 379.742 178.887 380.184 178.143 380.518C177.417 380.839 176.601 381 175.694 381Z" fill="#EAF4FE"/>
</g>
<g style="mix-blend-mode:lighten" filter="url(#filter5_d_1650_129)">
<path d="M133.726 154.058C133.659 154.058 133.605 154.004 133.605 153.937C133.624 152.659 133.805 151.642 134.15 150.886C134.494 150.129 134.984 149.517 135.619 149.049C136.254 148.58 137.016 148.148 137.905 147.754C138.44 147.513 138.921 147.228 139.347 146.9C139.773 146.566 140.109 146.181 140.354 145.746C140.608 145.311 140.735 144.829 140.735 144.3C140.735 143.645 140.526 143.076 140.109 142.594C139.692 142.112 139.134 141.741 138.435 141.48C137.737 141.219 136.961 141.088 136.109 141.088C135.365 141.088 134.649 141.202 133.959 141.429C133.27 141.657 132.694 142.015 132.231 142.504C132.108 142.634 131.998 142.776 131.902 142.928C131.425 143.686 130.743 144.421 129.847 144.421C128.847 144.421 128.018 143.545 128.441 142.638C128.632 142.228 128.885 141.849 129.197 141.5C129.932 140.69 130.898 140.071 132.095 139.643C133.302 139.214 134.639 139 136.109 139C137.705 139 139.093 139.234 140.272 139.703C141.46 140.171 142.376 140.814 143.02 141.63C143.673 142.447 144 143.377 144 144.421C144 145.157 143.846 145.823 143.537 146.419C143.238 147.014 142.803 147.546 142.231 148.015C141.669 148.483 140.989 148.898 140.19 149.259C139.392 149.627 138.753 150.016 138.272 150.424C137.791 150.825 137.442 151.304 137.224 151.859C137.007 152.415 136.889 153.107 136.871 153.937C136.871 154.004 136.817 154.058 136.75 154.058H133.726ZM135.347 160C134.676 160 134.1 159.823 133.619 159.468C133.138 159.114 132.898 158.689 132.898 158.193C132.898 157.698 133.138 157.273 133.619 156.919C134.1 156.564 134.676 156.386 135.347 156.386C136.018 156.386 136.594 156.564 137.075 156.919C137.556 157.273 137.796 157.698 137.796 158.193C137.796 158.521 137.683 158.822 137.456 159.097C137.238 159.371 136.943 159.592 136.571 159.759C136.209 159.92 135.8 160 135.347 160Z" fill="#EAF4FE"/>
</g>
<defs>
<filter id="filter0_d_1650_129" x="346.223" y="107" width="63.7773" height="82" filterUnits="userSpaceOnUse" color-interpolation-filters="sRGB">
<feFlood flood-opacity="0" result="BackgroundImageFix"/>
<feColorMatrix in="SourceAlpha" type="matrix" values="0 0 0 0 0 0 0 0 0 0 0 0 0 0 0 0 0 0 127 0" result="hardAlpha"/>
<feOffset dy="0"/>
<feGaussianBlur stdDeviation="0"/>
<feComposite in2="hardAlpha" operator="out"/>
<feColorMatrix type="matrix" values="0 0 0 0 0 0 0 0 0 0 0 0 0 0 0 0 0 0 0.25 0"/>
<feBlend mode="normal" in2="BackgroundImageFix" result="effect1_dropShadow_1650_129"/>
<feBlend mode="normal" in="SourceGraphic" in2="effect1_dropShadow_1650_129" result="shape"/>
</filter>
<filter id="filter1_d_1650_129" x="336.213" y="317" width="69.7871" height="90" filterUnits="userSpaceOnUse" color-interpolation-filters="sRGB">
<feFlood flood-opacity="0" result="BackgroundImageFix"/>
<feColorMatrix in="SourceAlpha" type="matrix" values="0 0 0 0 0 0 0 0 0 0 0 0 0 0 0 0 0 0 127 0" result="hardAlpha"/>
<feOffset dy="0"/>
<feGaussianBlur stdDeviation="0"/>
<feComposite in2="hardAlpha" operator="out"/>
<feColorMatrix type="matrix" values="0 0 0 0 0 0 0 0 0 0 0 0 0 0 0 0 0 0 0.25 0"/>
<feBlend mode="normal" in2="BackgroundImageFix" result="effect1_dropShadow_1650_129"/>
<feBlend mode="normal" in="SourceGraphic" in2="effect1_dropShadow_1650_129" result="shape"/>
</filter>
<filter id="filter2_d_1650_129" x="0.265625" y="97" width="43.7344" height="56" filterUnits="userSpaceOnUse" color-interpolation-filters="sRGB">
<feFlood flood-opacity="0" result="BackgroundImageFix"/>
<feColorMatrix in="SourceAlpha" type="matrix" values="0 0 0 0 0 0 0 0 0 0 0 0 0 0 0 0 0 0 127 0" result="hardAlpha"/>
<feOffset dy="0"/>
<feGaussianBlur stdDeviation="0"/>
<feComposite in2="hardAlpha" operator="out"/>
<feColorMatrix type="matrix" values="0 0 0 0 0 0 0 0 0 0 0 0 0 0 0 0 0 0 0.25 0"/>
<feBlend mode="normal" in2="BackgroundImageFix" result="effect1_dropShadow_1650_129"/>
<feBlend mode="normal" in="SourceGraphic" in2="effect1_dropShadow_1650_129" result="shape"/>
</filter>
<filter id="filter3_d_1650_129" x="303.285" y="245" width="39.7148" height="50" filterUnits="userSpaceOnUse" color-interpolation-filters="sRGB">
<feFlood flood-opacity="0" result="BackgroundImageFix"/>
<feColorMatrix in="SourceAlpha" type="matrix" values="0 0 0 0 0 0 0 0 0 0 0 0 0 0 0 0 0 0 127 0" result="hardAlpha"/>
<feOffset dy="0"/>
<feGaussianBlur stdDeviation="0"/>
<feComposite in2="hardAlpha" operator="out"/>
<feColorMatrix type="matrix" values="0 0 0 0 0 0 0 0 0 0 0 0 0 0 0 0 0 0 0.25 0"/>
<feBlend mode="normal" in2="BackgroundImageFix" result="effect1_dropShadow_1650_129"/>
<feBlend mode="normal" in="SourceGraphic" in2="effect1_dropShadow_1650_129" result="shape"/>
</filter>
<filter id="filter4_d_1650_129" x="157.285" y="339" width="39.7148" height="50" filterUnits="userSpaceOnUse" color-interpolation-filters="sRGB">
<feFlood flood-opacity="0" result="BackgroundImageFix"/>
<feColorMatrix in="SourceAlpha" type="matrix" values="0 0 0 0 0 0 0 0 0 0 0 0 0 0 0 0 0 0 127 0" result="hardAlpha"/>
<feOffset dy="0"/>
<feGaussianBlur stdDeviation="0"/>
<feComposite in2="hardAlpha" operator="out"/>
<feColorMatrix type="matrix" values="0 0 0 0 0 0 0 0 0 0 0 0 0 0 0 0 0 0 0.25 0"/>
<feBlend mode="normal" in2="BackgroundImageFix" result="effect1_dropShadow_1650_129"/>
<feBlend mode="normal" in="SourceGraphic" in2="effect1_dropShadow_1650_129" result="shape"/>
</filter>
<filter id="filter5_d_1650_129" x="124.328" y="139" width="23.6719" height="29" filterUnits="userSpaceOnUse" color-interpolation-filters="sRGB">
<feFlood flood-opacity="0" result="BackgroundImageFix"/>
<feColorMatrix in="SourceAlpha" type="matrix" values="0 0 0 0 0 0 0 0 0 0 0 0 0 0 0 0 0 0 127 0" result="hardAlpha"/>
<feOffset dy="0"/>
<feGaussianBlur stdDeviation="0"/>
<feComposite in2="hardAlpha" operator="out"/>
<feColorMatrix type="matrix" values="0 0 0 0 0 0 0 0 0 0 0 0 0 0 0 0 0 0 0.25 0"/>
<feBlend mode="normal" in2="BackgroundImageFix" result="effect1_dropShadow_1650_129"/>
<feBlend mode="normal" in="SourceGraphic" in2="effect1_dropShadow_1650_129" result="shape"/>
</filter>
</defs>
</svg>
