<svg width="170" height="692" viewBox="0 0 170 692" fill="none" xmlns="http://www.w3.org/2000/svg">
<g style="mix-blend-mode:lighten" opacity="0.3">
<path d="M119.734 1L120.175 201.755C120.181 204.463 118.083 206.716 115.38 206.88V206.88C113.574 206.99 110.915 207.134 110.12 207.177C109.965 207.186 109.811 207.196 109.656 207.208C108.582 207.294 104.002 207.673 100.963 208.119C98.6845 208.454 95.3592 209.107 94.3795 209.302C94.1916 209.34 94.0061 209.38 93.8196 209.424C93.0073 209.614 90.5935 210.181 88.9491 210.598C84.6226 211.696 82.1961 212.33 77.9649 213.697C73.6057 215.105 71.1615 215.929 66.9807 217.725C63.4063 219.26 61.4647 220.246 58.056 222.063C55.462 223.446 54.0105 224.233 51.5341 225.781C49.3301 227.159 48.1384 227.991 46.042 229.5C42.4034 232.118 40.3758 233.628 37.1173 236.626C35.1933 238.397 32.566 241.194 31.8263 241.987C31.6911 242.132 31.5601 242.279 31.43 242.428L28.1375 246.211C27.9454 246.431 27.759 246.655 27.5777 246.885C27.005 247.61 25.6529 249.335 24.7601 250.57C23.6419 252.117 23.0271 252.993 22.014 254.598C20.3815 257.184 19.5594 258.688 18.2382 261.415C16.8613 264.257 16.2144 265.903 15.1489 268.852C14.2409 271.364 13.7588 272.786 13.0893 275.359C12.6204 277.161 12.4402 278.188 12.0595 280.007C11.63 282.059 11.3711 283.208 11.0298 285.274V285.274C10.2357 290.08 14.1753 294.26 19.0466 294.26H51.2355C55.2421 294.26 58.3802 291.077 59.0858 287.133V287.133C59.3701 285.544 59.959 283.344 60.2649 282.243C60.3922 281.784 60.5413 281.332 60.7062 280.886L62.5183 275.978L63.6407 273.142C64.036 272.142 64.5112 271.177 65.0617 270.254L66.6374 267.612L70.7565 262.035L74.5323 258.007L78.4995 254.701C78.8295 254.426 79.1673 254.162 79.5165 253.912C80.5271 253.188 82.8002 251.583 84.4868 250.57C86.9373 249.099 88.3497 248.3 91.0087 247.162C92.6909 246.441 95.1492 245.635 96.3972 245.239C96.923 245.072 97.4438 244.89 97.9588 244.693C99.1772 244.225 101.591 243.324 103.366 242.824C106.122 242.046 110.499 241.341 110.89 241.279C110.91 241.275 110.925 241.273 110.946 241.27C111.333 241.208 115.636 240.529 118.469 240.345C121.491 240.149 126.063 240.307 126.912 240.339C127.005 240.343 127.096 240.346 127.189 240.349C128.08 240.376 133.057 240.543 136.319 240.964C140.536 241.509 142.866 242.068 146.96 243.133C149.811 243.876 151.421 244.289 154.168 245.302C158.387 246.859 160.632 248.035 164.466 250.26C166.74 251.58 169.679 253.646 171.362 254.858C172.26 255.506 173.089 256.239 173.856 257.038L176.696 259.996C177.009 260.322 177.332 260.636 177.661 260.947C178.683 261.913 181.038 264.214 182.315 266.063C183.724 268.103 185.055 271.383 185.547 272.659C185.684 273.013 185.822 273.362 185.968 273.713C186.496 274.978 187.838 278.273 188.494 280.626C188.947 282.253 189.366 284.483 189.619 285.942C189.792 286.941 189.867 287.952 189.867 288.965V294.254C189.867 294.258 189.867 294.257 189.867 294.261C189.867 294.398 189.858 304.813 187.464 310.992C185.98 314.824 184.604 316.795 182.315 320.288C179.189 325.059 177.133 327.616 173.047 331.753C169.26 335.587 166.796 337.471 162.406 340.739C153.482 347.382 146.728 348.883 137.348 354.992C130.694 359.327 126.88 361.72 120.872 366.767C116.013 370.849 113.294 373.205 109.201 377.922C105.074 382.678 102.807 385.479 99.9334 390.936C96.9116 396.673 96.2884 400.299 94.4413 406.429C92.8879 411.584 91.7185 414.449 91.0087 419.753C90.2209 425.639 91.0087 429.007 91.0087 434.936V434.936C91.0087 443.15 97.6676 449.809 105.882 449.809H116.347C126.83 449.809 135.334 441.679 136.963 431.323C137.087 430.536 137.215 429.773 137.348 429.049C138.372 423.48 140.528 415.437 141.236 412.845C141.39 412.282 141.568 411.736 141.783 411.194C142.58 409.181 144.763 403.885 146.96 400.542C149.64 396.461 151.636 394.424 155.198 390.936C161.27 384.988 165.727 382.587 173.047 377.922C180.616 373.098 185.853 371.743 193.299 366.767C199.563 362.581 202.909 359.982 208.403 354.992C214.101 349.816 217.375 346.852 221.79 340.739C227.097 333.39 229.313 328.696 232.087 320.288C234.837 311.956 235.505 306.976 235.863 298.288C236.335 286.844 235.704 280.138 232.087 269.162C226.929 253.507 221.293 244.678 208.403 233.218C196.871 222.966 188.125 219.007 173.047 213.697M118.676 691L119.823 549.217C119.833 547.936 118.71 546.941 117.439 547.105V547.105H114.007C111.719 546.795 107.004 546.175 106.455 546.175C106.011 546.175 102.835 545.362 100.428 544.724C99.4124 544.455 98.4224 544.103 97.4769 543.645C95.9734 542.917 93.6097 541.709 92.0384 540.598C89.6511 538.909 88.5112 537.726 86.5463 535.64C84.6182 533.593 83.4869 532.432 82.084 530.062C80.6049 527.564 79.9003 526.032 79.3379 523.246C78.7374 520.269 78.5459 518.497 78.9947 515.499C79.2517 513.782 79.5737 512.845 80.0244 511.161C80.6126 508.964 81.0222 507.631 82.084 505.584C83.6197 502.623 85.1065 500.848 87.5761 498.457C90.1566 495.958 94.8277 493.152 95.6792 492.649C95.7692 492.596 95.8591 492.543 95.9486 492.489L97.9755 491.269C98.5938 490.897 99.2303 490.557 99.8915 490.268C100.693 489.917 101.825 489.442 102.679 489.161C103.486 488.896 104.541 488.643 105.33 488.468C106.078 488.302 106.837 488.202 107.602 488.149C108.769 488.07 110.595 487.956 111.947 487.922C113.689 487.878 114.669 487.854 116.41 487.922C118.022 487.984 118.935 487.999 120.529 488.232C122.583 488.532 123.7 488.886 125.678 489.471C127.452 489.996 128.476 490.257 130.14 491.02C131.698 491.735 132.495 492.271 133.916 493.189C135.312 494.091 136.069 494.634 137.348 495.668C138.62 496.696 139.286 497.32 140.438 498.457C141.272 499.28 141.7 499.773 142.497 500.626C143.173 501.348 143.612 501.712 144.214 502.485C145.489 504.124 145.827 505.261 146.616 507.133C147.069 508.206 147.302 508.816 147.646 509.922C148.201 511.703 148.516 512.724 148.676 514.569C148.78 515.776 148.676 516.458 148.676 517.668C148.676 519.241 148.851 520.131 148.676 521.696C148.483 523.42 148.189 524.373 147.646 526.034C147.202 527.393 146.948 528.164 146.273 529.443C145.6 530.717 145.063 531.357 144.214 532.541C143.324 533.781 142.822 534.479 141.811 535.64C141.047 536.517 139.751 537.809 139.751 537.809" stroke="#FDFDFE" stroke-width="20"/>
</g>
</svg>
